<svg width="66" height="16" viewBox="0 0 66 16" fill="none" xmlns="http://www.w3.org/2000/svg">
<path d="M2.93028 1.43329H0.201538L5.0355 15.7118H8.10617L12.9468 1.43329H10.2114L6.64458 12.672H6.50379L2.93028 1.43329Z" fill="#7B2CBF"/>
<path d="M15.1201 15.7118H17.5471V5.00291H15.1201V15.7118ZM16.3403 3.48304C17.1113 3.48304 17.7416 2.86951 17.7416 2.11654C17.7416 1.3566 17.1113 0.743073 16.3403 0.743073C15.5626 0.743073 14.9324 1.3566 14.9324 2.11654C14.9324 2.86951 15.5626 3.48304 16.3403 3.48304Z" fill="#7B2CBF"/>
<path d="M25.074 15.9209C27.4742 15.9209 29.1235 14.7008 29.5526 12.8393L27.2864 12.5744C26.9579 13.4808 26.1534 13.9549 25.1075 13.9549C23.5386 13.9549 22.4994 12.8812 22.4793 11.0476H29.6531V10.2737C29.6531 6.51582 27.4809 4.86348 24.9466 4.86348C21.9966 4.86348 20.0724 7.1154 20.0724 10.4201C20.0724 13.7806 21.9698 15.9209 25.074 15.9209ZM22.486 9.34642C22.5598 7.97992 23.5319 6.82956 24.9801 6.82956C26.3746 6.82956 27.3133 7.88929 27.3267 9.34642H22.486Z" fill="#7B2CBF"/>
<path d="M34.2484 15.7118H36.7827L38.7136 8.47493H38.8544L40.7853 15.7118H43.3129L46.2294 5.00291H43.7487L41.9653 12.4908H41.8648L40.0143 5.00291H37.5672L35.7167 12.5326H35.6228L33.8126 5.00291H31.3387L34.2484 15.7118Z" fill="#7B2CBF"/>
<path d="M52.6785 15.9209C55.0787 15.9209 56.728 14.7008 57.1571 12.8393L54.891 12.5744C54.5624 13.4808 53.7579 13.9549 52.712 13.9549C51.1431 13.9549 50.1039 12.8812 50.0838 11.0476H57.2577V10.2737C57.2577 6.51582 55.0854 4.86348 52.5511 4.86348C49.6011 4.86348 47.6769 7.1154 47.6769 10.4201C47.6769 13.7806 49.5743 15.9209 52.6785 15.9209ZM50.0905 9.34642C50.1643 7.97992 51.1364 6.82956 52.5846 6.82956C53.9791 6.82956 54.9178 7.88929 54.9312 9.34642H50.0905Z" fill="#7B2CBF"/>
<path d="M59.7829 15.7118H62.2099V9.41614C62.2099 8.05661 63.1955 7.09449 64.5297 7.09449C64.9387 7.09449 65.4482 7.17118 65.6561 7.2409V4.91925C65.4348 4.87742 65.0527 4.84953 64.7845 4.84953C63.6045 4.84953 62.6189 5.54672 62.2435 6.78772H62.1362V5.00291H59.7829V15.7118Z" fill="#7B2CBF"/>
</svg>
